<svg width="25" height="25" viewBox="0 0 25 25" fill="none" xmlns="http://www.w3.org/2000/svg">
<path fill-rule="evenodd" clip-rule="evenodd" d="M0.6465 1.25049C0.562675 1.24761 0.479126 1.26162 0.400832 1.29171C0.322537 1.32179 0.251099 1.36732 0.190773 1.4256C0.130447 1.48387 0.082467 1.55369 0.0496921 1.6309C0.0169171 1.7081 1.74581e-05 1.79112 0 1.87499L0 19.4475C1.99872e-05 19.5666 0.0340811 19.6832 0.0981714 19.7837C0.162262 19.8841 0.253712 19.9641 0.36175 20.0142L8.27825 23.6917C8.36255 23.7309 8.45453 23.7508 8.5475 23.75C8.63665 23.7493 8.72462 23.7295 8.8055 23.692L16.4587 20.1367L24.112 23.6917C24.2072 23.7359 24.312 23.7554 24.4168 23.7484C24.5215 23.7414 24.6228 23.7081 24.7112 23.6516C24.7997 23.5951 24.8726 23.5173 24.923 23.4253C24.9735 23.3332 25 23.23 25 23.125V6.74174C24.6418 7.32221 24.2228 7.86284 23.75 8.35449V22.1455L16.8305 18.9312L16.7805 10.146C16.5209 9.92975 16.2693 9.70402 16.0263 9.46924L16.0805 18.9335L8.9115 22.2642L8.81925 6.11274L12.7255 4.29774C12.6706 3.8278 12.6927 3.35206 12.791 2.88924L8.5415 4.86324L0.88825 1.30824C0.812346 1.273 0.730137 1.25336 0.6465 1.25049ZM1.25 2.85449L8.06875 6.02199L8.1615 22.2595L1.25 19.048V2.85449Z" fill="#F9FAFB"/>
<path d="M17.457 0C18.13 0 18.771 0.37525 19.347 0.71425C19.9237 0.37525 20.5647 0 21.2375 0C23.3087 0 25 1.69125 25 3.7625V3.771C24.9745 5.52275 23.5635 7.146 22.2475 8.4265C20.9315 9.7065 19.6255 10.617 19.6255 10.617C19.53 10.6835 19.4163 10.7189 19.3 10.7181C19.1837 10.7173 19.0705 10.6805 18.976 10.6128C18.976 10.6128 17.753 9.738 16.491 8.4765C15.2287 7.21475 13.868 5.58325 13.6975 3.8165C13.6956 3.79865 13.6947 3.7807 13.6947 3.76275C13.6945 1.69125 15.3857 0 17.457 0Z" fill="#F9FAFB"/>
</svg>
