<svg width="30" height="30" viewBox="0 0 30 30" fill="none" xmlns="http://www.w3.org/2000/svg">
<path d="M7.045 22.955C8.88556 24.7956 11.3074 25.941 13.8979 26.196C16.4883 26.451 19.087 25.7998 21.2511 24.3535C23.4153 22.9071 25.0109 20.7551 25.7661 18.2641C26.5213 15.7731 26.3893 13.0973 25.3927 10.6927C24.3961 8.28805 22.5965 6.30344 20.3005 5.07703C18.0046 3.85063 15.3544 3.45832 12.8016 3.96696C10.2489 4.4756 7.95145 5.85372 6.30092 7.86647C4.65038 9.87921 3.74887 12.402 3.75 15.005V17.5" stroke="#F9FAFB" stroke-width="1.875" stroke-linecap="round" stroke-linejoin="round"/>
<path d="M1.25 15L3.75 17.5L6.25 15M13.75 10V16.25H20" stroke="#F9FAFB" stroke-width="1.875" stroke-linecap="round" stroke-linejoin="round"/>
</svg>
