<svg width="512" height="512" viewBox="0 0 512 512" fill="none" xmlns="http://www.w3.org/2000/svg">
<rect width="512" height="512" fill="#0C0C0C"/>
<path d="M319.904 231.781C319.904 231.087 319.904 230.278 319.904 229.585C319.358 212.36 312.799 196.407 301.213 184.153C289.189 171.436 273.011 164.5 255.959 164.5C238.907 164.5 222.839 171.436 210.705 184.153C198.572 196.869 191.904 213.747 191.904 231.781C191.904 249.815 198.572 266.693 210.705 279.41C221.09 290.392 234.425 296.981 248.854 298.715V340.911C248.854 342.76 249.51 344.379 250.712 345.535C251.805 346.691 253.336 347.5 255.084 347.5C256.833 347.5 258.473 346.691 259.566 345.419C259.566 345.419 259.675 345.304 259.785 345.188L259.894 345.072C259.894 344.957 260.003 344.957 260.113 344.841C260.113 344.726 260.222 344.726 260.331 344.61L308.864 269.93C315.969 258.717 319.904 245.538 319.904 231.781ZM248.854 284.149C228.851 281.144 212.564 265.768 207.317 245.654C210.049 247.619 213.001 249.006 216.28 249.815C218.029 250.278 219.887 250.393 221.745 250.393C229.178 250.393 236.939 247.041 243.716 240.798C245.575 239.064 247.324 237.214 248.963 235.134V284.149H248.854ZM261.315 321.72V298.6L266.343 306.23L274.76 303.455L261.315 321.72ZM261.206 284.381V204.73C261.206 201.146 258.473 198.141 254.975 198.141C252.789 198.141 250.931 199.297 249.838 201.146C248.854 202.765 248.417 204.614 247.652 206.348C245.793 211.088 243.607 215.712 241.312 220.105C239.235 224.036 236.939 227.851 233.551 230.741C232.895 231.319 232.239 231.781 231.583 232.244C228.632 234.324 225.134 235.943 221.527 235.827C220.652 235.827 219.887 235.712 219.013 235.596C215.187 234.671 212.126 231.781 210.049 227.157C208.628 223.92 207.973 220.683 208.301 217.215C208.628 213.978 209.503 210.857 210.815 207.851C211.47 206.348 212.236 204.846 213.329 203.227C213.329 203.111 213.438 202.996 213.547 202.996C213.547 202.88 213.657 202.88 213.657 202.765C213.766 202.649 213.766 202.533 213.875 202.418C213.985 202.187 214.203 201.955 214.313 201.724C214.422 201.609 214.531 201.377 214.64 201.262C214.75 201.146 214.859 201.031 214.968 200.799C215.296 200.337 215.515 199.99 215.843 199.528C215.952 199.412 216.061 199.297 216.171 199.065C216.389 198.834 216.499 198.603 216.717 198.372C216.936 198.025 217.155 197.794 217.482 197.447C217.592 197.331 217.701 197.1 217.92 196.985C218.138 196.753 218.248 196.522 218.466 196.291C218.685 196.06 218.903 195.713 219.122 195.482C219.341 195.25 219.559 195.019 219.778 194.672C219.887 194.557 220.106 194.326 220.215 194.21C221.308 193.17 222.292 192.129 223.494 191.089C223.713 190.973 223.822 190.742 224.041 190.626C224.26 190.395 224.587 190.164 224.806 190.048C225.025 189.933 225.134 189.702 225.353 189.586C225.462 189.47 225.571 189.355 225.681 189.355C225.79 189.239 225.899 189.239 226.008 189.123C226.555 188.661 227.211 188.199 227.757 187.852C227.976 187.736 228.085 187.621 228.304 187.505C228.523 187.389 228.741 187.274 228.96 187.043C229.178 186.927 229.397 186.811 229.616 186.58C229.834 186.465 229.944 186.349 230.162 186.233C230.381 186.118 230.49 186.002 230.709 185.887C230.927 185.771 231.255 185.54 231.474 185.424C231.693 185.309 232.02 185.193 232.239 184.962C232.458 184.846 232.567 184.731 232.786 184.615C233.004 184.499 233.223 184.384 233.441 184.268C233.551 184.268 233.551 184.153 233.66 184.153C233.769 184.153 233.879 184.037 233.988 183.921C234.097 183.921 234.207 183.806 234.316 183.806C234.535 183.69 234.862 183.575 235.19 183.343C235.409 183.228 235.518 183.228 235.737 183.112C235.956 182.997 236.174 182.881 236.283 182.881C236.502 182.765 236.721 182.765 236.83 182.65C237.049 182.534 237.267 182.419 237.486 182.419C237.704 182.303 237.814 182.303 237.923 182.187C238.142 182.072 238.251 182.072 238.47 181.956C238.688 181.84 238.907 181.84 239.016 181.725C239.672 181.494 240.328 181.262 240.984 181.031C241.312 180.916 241.53 180.8 241.858 180.8C242.077 180.684 242.405 180.684 242.623 180.569C243.279 180.453 243.935 180.222 244.482 180.106C244.7 180.106 244.919 179.991 245.028 179.991C245.247 179.991 245.465 179.875 245.684 179.875C245.903 179.875 246.121 179.76 246.231 179.76C246.449 179.76 246.668 179.644 246.777 179.644C247.324 179.528 247.87 179.413 248.417 179.413C248.745 179.413 249.073 179.297 249.4 179.297C249.728 179.297 250.056 179.182 250.384 179.182C250.494 179.182 250.603 179.182 250.821 179.182C251.04 179.182 251.149 179.182 251.368 179.182C251.696 179.182 252.133 179.182 252.461 179.066C252.68 179.066 252.898 179.066 253.008 179.066C253.226 179.066 253.336 179.066 253.554 179.066C253.773 179.066 253.882 179.066 254.101 179.066C254.429 179.066 254.866 179.066 255.194 179.066C282.958 179.066 305.585 202.765 305.585 232.012C306.35 259.063 286.565 281.606 261.206 284.381Z" fill="white"/>
</svg>
