<svg width="236" height="46" viewBox="0 0 236 46" fill="none" xmlns="http://www.w3.org/2000/svg">
<path d="M88 20.1001C88 9.1001 96.4 0.100098 108 0.100098C119.6 0.100098 128 9.1001 128 20.1001C128 30.0001 121.3 38.2001 111.6 39.8001V45.4001H104.5V39.8001C94.7 38.2001 88 30.0001 88 20.1001ZM95.3 20.1001C95.3 27.6001 100.3 33.6001 108 33.6001C115.7 33.6001 120.7 27.6001 120.7 20.1001C120.7 12.7001 115.7 6.6001 108 6.6001C100.3 6.6001 95.3 12.6001 95.3 20.1001Z" fill="#010101"/>
<path d="M159.9 21.5002V39.6002H141.2C127.3 39.6002 127.6 20.8002 141.2 20.8002H153C152.8 16.8002 151.8 14.8002 147.7 14.8002H133.5V8.7002H148.8V8.8002C155.6 9.0002 159.7 12.9002 159.9 21.5002ZM153 26.3002H141.3C136.4 26.3002 136.5 33.9002 141.3 33.9002H153V26.3002Z" fill="#010101"/>
<path d="M184.8 33.4002V39.5002H177.3C170.3 39.2002 164.5 35.1002 164.5 26.4002V3.2002H171.4V8.6002H182.8V14.7002H171.4V26.1002C171.4 30.9002 174.5 33.3002 178.4 33.3002L184.8 33.4002Z" fill="#010101"/>
<path d="M216.3 21.5002V39.6002H197.6C183.7 39.6002 184 20.8002 197.6 20.8002H209.4C209.2 16.8002 208.2 14.8002 204.1 14.8002H189.9V8.7002H205.2V8.8002C212 9.0002 216.2 12.9002 216.3 21.5002ZM209.4 26.3002H197.7C192.8 26.3002 192.9 33.9002 197.7 33.9002H209.4V26.3002Z" fill="#010101"/>
<path d="M235.5 8.10001V14.7H233.6C229.6 14.8 228 17.1 228 21.9V39.5H221.1V21.6C221.1 12.6 226.2 8 233.6 8H235.5V8.10001Z" fill="#010101"/>
<path d="M19.7 40.1C10.1 40.1 0 33.9 0 20.1C0 7.00001 9.5 0 19 0C26.3 0 33.6 4.20001 36.5 12.9H29C27.3 8.80001 23.4 6.7 19.3 6.7C13.4 6.7 7.39999 11 7.39999 20.1C7.39999 29.4 14 33.6 20.2 33.6C25.3 33.6 30.1 30.8 30.8 25.6H17.5V19.2H37V25.4C36.9 34.8 28.5 40.1 19.7 40.1Z" fill="#010101"/>
<path d="M72.0001 24.1002C72.0001 32.9002 65.4001 40.0002 56.1001 40.0002C46.8001 40.0002 40.1001 32.9002 40.1001 24.1002C40.1001 15.3002 46.7001 8.2002 56.1001 8.2002C65.4001 8.2002 72.0001 15.3002 72.0001 24.1002ZM64.8001 24.1002C64.8001 19.0002 61.4001 14.8002 56.2001 14.8002C50.9001 14.8002 47.5001 19.0002 47.5001 24.1002C47.5001 29.2002 50.9001 33.4002 56.2001 33.4002C61.4001 33.4002 64.8001 29.2002 64.8001 24.1002Z" fill="#010101"/>
</svg>
