<svg width="117" height="114" viewBox="0 0 117 114" fill="none" xmlns="http://www.w3.org/2000/svg">
<rect width="117" height="114" rx="23" fill="#FCA531"/>
<path d="M44.85 24.125C41.35 8.98747 18.5563 8.94372 15.0563 24.125C13 33.0062 18.6438 40.5312 23.5438 45.2125C27.1313 48.5812 32.775 48.5812 36.3625 45.2125C41.2625 40.5312 46.8625 33.0062 44.85 24.125ZM30.1063 31.125C27.7 31.125 25.7313 29.1562 25.7313 26.75C25.7313 24.3437 27.6563 22.375 30.0625 22.375H30.1063C32.5563 22.375 34.4813 24.3437 34.4813 26.75C34.4813 29.1562 32.5563 31.125 30.1063 31.125Z" fill="white"/>
<path d="M101.856 76.625C98.3563 61.4875 75.475 61.4437 71.9313 76.625C69.875 85.5062 75.5188 93.0312 80.4625 97.7125C84.05 101.081 89.7375 101.081 93.325 97.7125C98.2688 93.0312 103.913 85.5062 101.856 76.625ZM87.0688 83.625C84.6625 83.625 82.6938 81.6562 82.6938 79.25C82.6938 76.8437 84.6188 74.875 87.025 74.875H87.0688C89.475 74.875 91.4438 76.8437 91.4438 79.25C91.4438 81.6562 89.475 83.625 87.0688 83.625Z" fill="white"/>
<path d="M58.4997 90.4062H46.7747C41.6997 90.4062 37.281 87.3438 35.531 82.6187C33.7372 77.8937 35.0497 72.6875 38.856 69.3188L73.8122 38.7375C75.9122 36.9 75.956 34.4062 75.3435 32.7C74.6872 30.9937 73.0247 29.1562 70.2247 29.1562H58.4997C56.706 29.1562 55.2185 27.6687 55.2185 25.875C55.2185 24.0813 56.706 22.5938 58.4997 22.5938H70.2247C75.2997 22.5938 79.7185 25.6563 81.4685 30.3813C83.2622 35.1063 81.9497 40.3125 78.1435 43.6812L43.1872 74.2625C41.0872 76.1 41.0435 78.5938 41.656 80.3C42.3122 82.0063 43.9747 83.8438 46.7747 83.8438H58.4997C60.2935 83.8438 61.781 85.3312 61.781 87.125C61.781 88.9187 60.2935 90.4062 58.4997 90.4062Z" fill="white"/>
</svg>
