<svg width="163" height="223" viewBox="0 0 163 223" fill="none" xmlns="http://www.w3.org/2000/svg">
<path d="M163 81.9874C163 81.1421 163 80.156 163 79.3108C162.304 58.3209 153.952 38.8806 139.197 23.9482C123.886 8.45231 103.284 0 81.5696 0C59.8548 0 39.3928 8.45231 23.9419 23.9482C8.49103 39.4441 0 60.0114 0 81.9874C0 103.963 8.49103 124.531 23.9419 140.027C37.1657 153.409 54.1477 161.439 72.5218 163.552V214.97C72.5218 217.224 73.357 219.196 74.8881 220.605C76.2801 222.014 78.2289 223 80.456 223C82.6832 223 84.7711 222.014 86.1631 220.464C86.1631 220.464 86.3023 220.323 86.4415 220.183L86.5807 220.042C86.5807 219.901 86.7199 219.901 86.8591 219.76C86.8591 219.619 86.9983 219.619 87.1375 219.478L148.941 128.475C157.989 114.81 163 98.7511 163 81.9874ZM72.5218 145.802C47.0487 142.14 26.3083 123.404 19.6268 98.892C23.1068 101.287 26.8651 102.977 31.041 103.963C33.2681 104.527 35.6345 104.668 38.0009 104.668C47.4663 104.668 57.3493 100.582 65.9795 92.9754C68.3459 90.8623 70.573 88.6083 72.661 86.0727V145.802H72.5218ZM88.3903 191.586V163.411L94.7934 172.709L105.512 169.328L88.3903 191.586ZM88.2511 146.084V49.0234C88.2511 44.6563 84.7711 40.9937 80.3168 40.9937C77.5329 40.9937 75.1665 42.4024 73.7746 44.6564C72.5218 46.6286 71.965 48.8825 70.9906 50.9956C68.6243 56.7713 65.8403 62.4062 62.9172 67.7593C60.2724 72.549 57.3493 77.1977 53.0342 80.7195C52.199 81.4239 51.3638 81.9874 50.5286 82.5509C46.7703 85.0865 42.316 87.0588 37.7225 86.9179C36.6089 86.9179 35.6345 86.777 34.5209 86.6361C29.649 85.5092 25.7515 81.9874 23.1068 76.3525C21.2972 72.4081 20.462 68.4637 20.8796 64.2375C21.2972 60.2931 22.4108 56.4896 24.0811 52.8269C24.9163 50.9956 25.8907 49.1642 27.2827 47.192C27.2827 47.0512 27.4219 46.9103 27.5611 46.9103C27.5611 46.7694 27.7003 46.7694 27.7003 46.6286C27.8395 46.4877 27.8395 46.3468 27.9787 46.2059C28.1179 45.9242 28.3963 45.6425 28.5354 45.3607C28.6746 45.2198 28.8138 44.9381 28.953 44.7972C29.0922 44.6563 29.2314 44.5155 29.3706 44.2337C29.7882 43.6702 30.0666 43.2476 30.4842 42.6841C30.6234 42.5433 30.7626 42.4024 30.9018 42.1207C31.1802 41.8389 31.3194 41.5572 31.5978 41.2754C31.8762 40.8528 32.1546 40.5711 32.5722 40.1484C32.7114 40.0076 32.8506 39.7258 33.129 39.585C33.4073 39.3032 33.5465 39.0215 33.8249 38.7397C34.1033 38.458 34.3817 38.0354 34.6601 37.7536C34.9385 37.4719 35.2169 37.1901 35.4953 36.7675C35.6345 36.6267 35.9129 36.3449 36.0521 36.204C37.4441 34.9362 38.6968 33.6684 40.228 32.4005C40.5064 32.2596 40.6456 31.9779 40.924 31.837C41.2024 31.5553 41.62 31.2735 41.8984 31.1327C42.1768 30.9918 42.316 30.71 42.5944 30.5692C42.7336 30.4283 42.8728 30.2874 43.012 30.2874C43.1512 30.1466 43.2904 30.1466 43.4296 30.0057C44.1255 29.4422 44.9607 28.8787 45.6567 28.4561C45.9351 28.3152 46.0743 28.1743 46.3527 28.0335C46.6311 27.8926 46.9095 27.7517 47.1879 27.47C47.4663 27.3291 47.7447 27.1882 48.0231 26.9065C48.3015 26.7656 48.4407 26.6248 48.7191 26.4839C48.9974 26.343 49.1366 26.2021 49.415 26.0613C49.6934 25.9204 50.111 25.6387 50.3894 25.4978C50.6678 25.3569 51.0854 25.216 51.3638 24.9343C51.6422 24.7934 51.7814 24.6526 52.0598 24.5117C52.3382 24.3708 52.6166 24.2299 52.895 24.0891C53.0342 24.0891 53.0342 23.9482 53.1734 23.9482C53.3126 23.9482 53.4518 23.8073 53.591 23.6665C53.7302 23.6665 53.8693 23.5256 54.0085 23.5256C54.2869 23.3847 54.7045 23.2438 55.1221 22.9621C55.4005 22.8212 55.5397 22.8212 55.8181 22.6804C56.0965 22.5395 56.3749 22.3986 56.5141 22.3986C56.7925 22.2577 57.0709 22.2577 57.2101 22.1169C57.4885 21.976 57.7669 21.8351 58.0453 21.8351C58.3237 21.6943 58.4629 21.6943 58.6021 21.5534C58.8805 21.4125 59.0196 21.4125 59.298 21.2716C59.5764 21.1308 59.8548 21.1308 59.994 20.9899C60.8292 20.7081 61.6644 20.4264 62.4996 20.1447C62.9172 20.0038 63.1956 19.8629 63.6132 19.8629C63.8916 19.722 64.3091 19.722 64.5875 19.5812C65.4227 19.4403 66.2579 19.1586 66.9539 19.0177C67.2323 19.0177 67.5107 18.8768 67.6499 18.8768C67.9283 18.8768 68.2067 18.7359 68.4851 18.7359C68.7635 18.7359 69.0419 18.5951 69.181 18.5951C69.4594 18.5951 69.7378 18.4542 69.877 18.4542C70.573 18.3133 71.269 18.1725 71.965 18.1725C72.3826 18.1725 72.8002 18.0316 73.2178 18.0316C73.6354 18.0316 74.053 17.8907 74.4705 17.8907C74.6097 17.8907 74.7489 17.8907 75.0273 17.8907C75.3057 17.8907 75.4449 17.8907 75.7233 17.8907C76.1409 17.8907 76.6977 17.8907 77.1153 17.7498C77.3937 17.7498 77.6721 17.7498 77.8113 17.7498C78.0897 17.7498 78.2289 17.7498 78.5073 17.7498C78.7857 17.7498 78.9249 17.7498 79.2032 17.7498C79.6208 17.7498 80.1776 17.7498 80.5952 17.7498C115.951 17.7498 144.765 46.6286 144.765 82.2691C145.74 115.233 120.545 142.703 88.2511 146.084Z" fill="white"/>
</svg>
